{"title":"Gangs Of Wasseypur 2 [2012].720p.DVDRip.6Ch.By K@rtik [EXD Exclu","uid":7687964,"size":1293098227,"categoryP":"video","categoryS":"hd___movies","magnet":"?xt=urn:btih:27ba8efa2dcf7eeb5827fe455db42b8ca0f750e3&amp;dn=Gangs+Of+Wasseypur+2+%5B2012%5D.720p.DVDRip.6Ch.By+K%40rtik+%5BEXD+Exclu&amp;tr=udp%3A%2F%2Ftracker.openbittorrent.com%3A80&amp;tr=udp%3A%2F%2Fopen.demonii.com%3A1337&amp;tr=udp%3A%2F%2Ftracker.coppersurfer.tk%3A6969&amp;tr=udp%3A%2F%2Fexodus.desync.com%3A6969","seeders":0,"leechers":1,"uploader":"TeamExD","files":4,"time":1349015798,"description":"Format                                   : Matroska\nFormat version                           : Version 2\nFile size                                : 1.19 GiB\nDuration                                 : 2h 39mn\nOverall bit rate                         : 1 062 Kbps\nMovie name                               : Gangs Of Wasseypur 2 [2012].720p.DVDRip.6Ch.By K@rtik [EXD ExclusivE]\n\nCodec ID                                 : V_MPEG4/ISO/AVC\nDuration                                 : 2h 39mn\nBit rate                                 : 817 Kbps\nNominal bit rate                         : 667 Kbps\nWidth                                    : 1 280 pixels\nHeight                                   : 544 pixels\nDisplay aspect ratio                     : 2.35:1\nFrame rate                               : 23.976 fps\nColor space                              : YUV\nChroma subsampling                       : 4:2:0\nBit depth                                : 8 bits\nScan type                                : Progressive\nBits/(Pixel*Frame)                       : 0.049\nStream size                              : 935 MiB (77%)\nTitle                                    : K@rtik\n\nCodec ID                                 : A_AC3\nDuration                                 : 2h 39mn\nBit rate mode                            : Constant\nBit rate                                 : 224 Kbps\nChannel(s)                               : 6 channels\nChannel positions                        : Front: L C R, Side: L R, LFE\nSampling rate                            : 48.0 KHz\nBit depth                                : 16 bits\nCompression mode                         : Lossy\nStream size                              : 256 MiB (21%)\nTitle                                    : K@rtik\nLanguage                                 : Hindi\n &lt;a href=&quot;\nhttp://imageshack.us/a/img43/5308/11578652.png&quot; rel=&quot;nofollow&quot; target=&quot;_NEW&quot;&gt;\nhttp://imageshack.us/a/img43/5308/11578652.png&lt;/a&gt; &lt;a href=&quot;\nhttp://imageshack.us/a/img11/5374/91139824.png&quot; rel=&quot;nofollow&quot; target=&quot;_NEW&quot;&gt;\nhttp://imageshack.us/a/img11/5374/91139824.png&lt;/a&gt; &lt;a href=&quot;\nhttp://imageshack.us/a/img715/2812/39536660.png&quot; rel=&quot;nofollow&quot; target=&quot;_NEW&quot;&gt;\nhttp://imageshack.us/a/img715/2812/39536660.png&lt;/a&gt; &lt;a href=&quot;\nhttp://imageshack.us/a/img17/135/42057213.png&quot; rel=&quot;nofollow&quot; target=&quot;_NEW&quot;&gt;\nhttp://imageshack.us/a/img17/135/42057213.png&lt;/a&gt; &lt;a href=&quot;\nhttp://imageshack.us/a/img641/488/71894469.png&quot; rel=&quot;nofollow&quot; target=&quot;_NEW&quot;&gt;\nhttp://imageshack.us/a/img641/488/71894469.png&lt;/a&gt; &lt;a href=&quot;\nhttp://imageshack.us/a/img138/1749/33219398.png&quot; rel=&quot;nofollow&quot; target=&quot;_NEW&quot;&gt;\nhttp://imageshack.us/a/img138/1749/33219398.png&lt;/a&gt; &lt;a href=&quot;\nhttp://imageshack.us/a/img685/1977/33697589.png&quot; rel=&quot;nofollow&quot; target=&quot;_NEW&quot;&gt;\nhttp://imageshack.us/a/img685/1977/33697589.png&lt;/a&gt; &lt;a href=&quot;\nhttp://imageshack.us/a/img217/6669/46089684.png&quot; rel=&quot;nofollow&quot; target=&quot;_NEW&quot;&gt;\nhttp://imageshack.us/a/img217/6669/46089684.png&lt;/a&gt; &lt;a href=&quot;\nhttp://imageshack.us/a/img822/96/14047233.png&quot; rel=&quot;nofollow&quot; target=&quot;_NEW&quot;&gt;\nhttp://imageshack.us/a/img822/96/14047233.png&lt;/a&gt; &lt;a href=&quot;\nhttp://imageshack.us/a/img189/5845/61440734.png&quot; rel=&quot;nofollow&quot; target=&quot;_NEW&quot;&gt;\nhttp://imageshack.us/a/img189/5845/61440734.png&lt;/a&gt;\n\n","torrent":{"xt":"urn:btih:27ba8efa2dcf7eeb5827fe455db42b8ca0f750e3","amp;dn":"Gangs+Of+Wasseypur+2+%5B2012%5D.720p.DVDRip.6Ch.By+K%40rtik+%5BEXD+Exclu","amp;tr":["udp%3A%2F%2Ftracker.openbittorrent.com%3A80","udp%3A%2F%2Fopen.demonii.com%3A1337","udp%3A%2F%2Ftracker.coppersurfer.tk%3A6969","udp%3A%2F%2Fexodus.desync.com%3A6969"],"infoHash":"27ba8efa2dcf7eeb5827fe455db42b8ca0f750e3","infoHashBuffer":{"type":"Buffer","data":[39,186,142,250,45,207,126,235,88,39,254,69,93,180,43,140,160,247,80,227]},"announce":[],"urlList":[]}}